# xmcd
#
# Track frame offsets:
#	150
#	14595
#	26928
#	41370
#	54732
#	70640
#	85549
#	100590
#	115127
#	131459
#	146983
#	160444
#
# Disc length: 2423 seconds
# Revision: 6
# Processed by: cddbd v1.5.2PL0 Copyright (c) Steve Scherf et al.
# Submitted via: dBpowerAMP V12.0
#
DISCID=9f09750c
DTITLE=Rhett Akins - What Livin's All About
DYEAR=1998
DGENRE=Country
TTITLE0=Better Than It Used to Be
TTITLE1=Happy as We Wanna Be
TTITLE2=More Than Everything
TTITLE3=I'll Be Right Here Lovin' You
TTITLE4=Not in the Cards
TTITLE5=What Livin's All About
TTITLE6=She's Got Everything Money Can't Buy
TTITLE7=Ain't That Just Like a Woman
TTITLE8=Dream the Rest
TTITLE9=Love Rules
TTITLE10=I'm Finding Out
TTITLE11=The Rest of Forever
EXTD=
EXTT0=
EXTT1=
EXTT2=
EXTT3=
EXTT4=
EXTT5=
EXTT6=
EXTT7=
EXTT8=
EXTT9=
EXTT10=
EXTT11=
PLAYORDER=
